<?xml version="1.0" encoding="UTF-8" standalone="no"?>
<svg
   version="1.1"
   x="0"
   y="0"
   width="659"
   height="659"
   viewBox="0, 0, 659, 659"
   id="svg147"
   sodipodi:docname="scribe.svg"
   inkscape:version="1.3.2 (091e20ef0f, 2023-11-25, custom)"
   inkscape:export-filename="scribe.png"
   inkscape:export-xdpi="96"
   inkscape:export-ydpi="96"
   xmlns:inkscape="http://www.inkscape.org/namespaces/inkscape"
   xmlns:sodipodi="http://sodipodi.sourceforge.net/DTD/sodipodi-0.dtd"
   xmlns="http://www.w3.org/2000/svg"
   xmlns:svg="http://www.w3.org/2000/svg"
   xmlns:rdf="http://www.w3.org/1999/02/22-rdf-syntax-ns#"
   xmlns:cc="http://creativecommons.org/ns#"
   xmlns:dc="http://purl.org/dc/elements/1.1/">
  <title
     id="title1">D·Scribe logo</title>
  <sodipodi:namedview
     id="namedview149"
     pagecolor="#ffffff"
     bordercolor="#999999"
     borderopacity="1"
     inkscape:showpageshadow="0"
     inkscape:pageopacity="0"
     inkscape:pagecheckerboard="0"
     inkscape:deskcolor="#d1d1d1"
     showgrid="false"
     inkscape:zoom="1.4324734"
     inkscape:cx="101.92161"
     inkscape:cy="308.20817"
     inkscape:window-width="952"
     inkscape:window-height="1008"
     inkscape:window-x="1925"
     inkscape:window-y="45"
     inkscape:window-maximized="1"
     inkscape:current-layer="g2" />
  <defs
     id="defs114">
    <clipPath
       id="Clip_1">
      <path
         d="M-0,-0 L658.999,-0 L658.999,658.94 L-0,658.94 z"
         id="path111" />
    </clipPath>
  </defs>
  <g
     id="g2"
     transform="matrix(9.1463635,0,0,9.146412,-4195.4127,1466.1939)">
    <path
       d="m 525.7006,-124.09689 c 0,16.96809 -13.75423,30.722039 -30.7226,30.722039 -16.96699,0 -30.72259,-13.753949 -30.72259,-30.722039 0,-16.9669 13.7556,-30.7225 30.72259,-30.7225 16.96837,0 30.7226,13.7556 30.7226,30.7225"
       fill="#1a1918"
       id="path18-3-5-5"
       style="fill:#50152c;fill-opacity:0.992157;stroke-width:0.240836"
       inkscape:export-filename="/home/fekete/Nextcloud-Antilopa/Disroot (2)/Artwork/Icons/new_pngs/ansible_circle.png"
       inkscape:export-xdpi="473.952"
       inkscape:export-ydpi="473.952" />
    <path
       id="path6-3"
       style="fill:#ffffff;fill-opacity:1;stroke-width:0.895662"
       d="m 508.80811,-147.35581 -1.7056,1.04513 c -0.0251,-0.005 -16.90799,12.19841 -22.00508,31.11648 1.09438,-0.56833 2.29872,-0.36257 3.13507,0.72052 0.39919,0.5167 -0.60582,1.45141 -2.61945,2.02522 2.98196,0.27906 4.40125,-1.02385 4.26629,-2.22236 -0.10888,-0.969 -1.33346,-1.62344 -2.79425,-1.61021 1.22475,-0.54262 4.91536,-0.009 6.19516,-0.35506 1.32525,-1.06164 3.3841,-3.30325 4.67644,-4.67196 -1.9243,0.53656 -7.02785,1.63595 -8.69957,1.2714 2.70831,-0.42424 6.77562,-0.80245 8.80186,-1.92853 1.74267,-1.99237 5.08668,-6.04312 6.62221,-8.34482 -1.88755,0.67741 -7.29368,2.94855 -9.80594,2.732 2.69898,-0.53137 7.38603,-1.81521 10.20338,-3.49308 1.56916,-2.27059 3.3526,-5.33861 4.29872,-7.55822 -2.69613,1.46903 -8.43986,4.91754 -11.24322,4.79494 3.11597,-1.09637 8.88911,-2.99197 11.6471,-6.01304 1.30695,-3.93171 0.55156,-6.42513 -0.97312,-7.50841 z m -2.76644,1.53956 c -12.95081,5.926 -23.67993,26.62505 -27.56446,43.62391 0.91414,-0.81909 2.30924,-5.49024 3.98356,-6.43679 -0.14366,-3.09034 0.83209,-5.20549 2.08695,-6.20985 -0.044,-0.13545 4.24549,-17.89554 21.49395,-30.97727 z m -16.65379,41.4211 c -1.9792,-0.0483 -4.76054,0.38089 -9.51113,1.80605 15.78199,-3.08442 11.09007,2.55767 23.35312,-0.0778 -9.01591,0.79509 -9.48771,-1.62195 -13.84199,-1.72827 z" />
  </g>
  <metadata
     id="metadata1">
    <rdf:RDF>
      <cc:Work
         rdf:about="">
        <dc:creator>
          <cc:Agent>
            <dc:title>Disroot Howto</dc:title>
          </cc:Agent>
        </dc:creator>
        <dc:rights>
          <cc:Agent>
            <dc:title>CC BY-SA 4.0</dc:title>
          </cc:Agent>
        </dc:rights>
        <dc:title>D·Scribe logo</dc:title>
        <cc:license
           rdf:resource="http://creativecommons.org/licenses/by-sa/4.0/" />
      </cc:Work>
      <cc:License
         rdf:about="http://creativecommons.org/licenses/by-sa/4.0/">
        <cc:permits
           rdf:resource="http://creativecommons.org/ns#Reproduction" />
        <cc:permits
           rdf:resource="http://creativecommons.org/ns#Distribution" />
        <cc:requires
           rdf:resource="http://creativecommons.org/ns#Notice" />
        <cc:requires
           rdf:resource="http://creativecommons.org/ns#Attribution" />
        <cc:permits
           rdf:resource="http://creativecommons.org/ns#DerivativeWorks" />
        <cc:requires
           rdf:resource="http://creativecommons.org/ns#ShareAlike" />
      </cc:License>
    </rdf:RDF>
  </metadata>
</svg>
